<?xml version="1.0" standalone="no"?>
<!DOCTYPE svg PUBLIC "-//W3C//DTD SVG 20010904//EN"
 "http://www.w3.org/TR/2001/REC-SVG-20010904/DTD/svg10.dtd">
<svg version="1.0" xmlns="http://www.w3.org/2000/svg"
 width="512.000000pt" height="512.000000pt" viewBox="0 0 512.000000 512.000000"
 preserveAspectRatio="xMidYMid meet">
<metadata>
Created by potrace 1.11, written by Peter Selinger 2001-2013
</metadata>
<g transform="translate(0.000000,512.000000) scale(0.100000,-0.100000)"
fill="#000000" stroke="none">
<path d="M2404 4962 c-82 -53 -308 -198 -502 -322 -194 -124 -378 -242 -409
-262 -32 -21 -74 -47 -93 -58 -19 -11 -61 -37 -92 -58 -32 -20 -175 -111 -318
-202 l-259 -165 -1 -1451 c0 -1153 3 -1453 13 -1456 10 -3 896 -3 920 1 4 1 7
71 7 156 l0 155 -312 2 -313 3 0 1208 -1 1208 661 421 c363 232 701 448 750
480 50 32 96 58 103 58 7 0 169 -100 360 -221 191 -122 529 -338 752 -480
l405 -258 0 -1208 0 -1208 -523 -3 -522 -2 -138 -88 c-75 -49 -312 -200 -527
-337 -408 -259 -426 -271 -592 -379 l-103 -66 0 -185 0 -186 58 37 c31 21 83
53 115 73 50 32 572 365 792 506 44 28 171 109 283 181 l203 129 632 0 632 1
2 1454 2 1455 -244 155 c-135 85 -270 171 -300 190 -30 19 -105 67 -167 106
-62 39 -259 165 -438 279 -179 114 -352 225 -385 246 -33 21 -65 43 -72 49 -7
5 -14 10 -17 10 -3 0 -50 29 -105 65 -55 36 -102 65 -103 64 -2 0 -71 -44
-154 -97z"/>
</g>
</svg>
