<?xml version="1.0" encoding="UTF-8"?>
<svg width="122px" height="106px" viewBox="0 0 122 106" version="1.1" xmlns="http://www.w3.org/2000/svg" xmlns:xlink="http://www.w3.org/1999/xlink">
    <!-- Generator: Sketch 50 (54983) - http://www.bohemiancoding.com/sketch -->
    <title>KMStudio</title>
    <desc>Created with Sketch.</desc>
    <defs>
        <linearGradient x1="100%" y1="0%" x2="38.828401%" y2="32.405599%" id="linearGradient-1">
            <stop stop-color="#FFFFFF" stop-opacity="0.9" offset="0%"></stop>
            <stop stop-color="#FFFFFF" stop-opacity="0" offset="100%"></stop>
        </linearGradient>
        <linearGradient x1="-8.38016592%" y1="39.7813354%" x2="75.6202928%" y2="67.0178375%" id="linearGradient-2">
            <stop stop-color="#FFFFFF" offset="0%"></stop>
            <stop stop-color="#FFFFFF" stop-opacity="0.739048952" offset="45.4750723%"></stop>
            <stop stop-color="#FFFFFF" stop-opacity="0" offset="100%"></stop>
        </linearGradient>
    </defs>
    <g id="KMStudio" stroke="none" stroke-width="1" fill="none" fill-rule="evenodd">
        <rect id="BG" fill="#FFFFFF" x="0" y="0" width="122" height="106"></rect>
        <rect id="Rectangle-28" fill="#000000" x="10" y="12" width="102" height="66"></rect>
        <polygon id="Rectangle-28" fill="url(#linearGradient-1)" points="112 12 112 78 78.2753906 45.3259277"></polygon>
        <polygon id="Rectangle-28" fill="#FFFFFF" points="78.0610352 12 112 12 78.2487793 45.2440796 60.6679687 28.1652222"></polygon>
        <polygon id="Path-2" fill="url(#linearGradient-2)" points="44 12 44 43.0107422 79.2543945 78.2312012 95.0878906 61.6118164"></polygon>
        <path d="M10,95 L10,82 L13.0799828,82 L13.0799828,87.0800018 L14.765377,87.0800018 L18.6984681,82 L22.3251953,82 L16.8791504,88.5 L22.3251953,95 L18.6984681,95 L14.765377,90.0795898 L13.0799828,90.0795898 L13.0799828,95 L10,95 Z M24,95 L24,82 L28.1462396,82 L30.264624,87.2436975 L30.735376,87.2436975 L32.8356546,82 L37,82 L37,95 L34.1499023,95 L34.1499023,87.2436975 L33.6264648,87.2436975 L31.6557617,91.7612305 L29.8132324,91.7612305 L27.2902832,87.2436975 L26.8808594,87.2436975 L26.8808594,95 L24,95 Z" id="KM" fill="#000000"></path>
        <path d="M46.4647393,87.2702703 C47.034315,87.3581081 48.2653337,87.6040541 48.94515,87.7445946 C50.9111051,88.1662162 52.2339908,89.1324324 52.2339908,91.2756757 C52.2339908,93.2432432 50.5987571,95 47.2731694,95 C44.2048095,95 42.2021075,93.4540541 42,91.2756757 L43.6719805,91.2756757 C43.9659551,92.9797297 45.5460686,93.5594595 47.3466631,93.5594595 C49.1656309,93.5594595 50.5620103,92.7513514 50.5620103,91.3108108 C50.5620103,89.9581081 49.6249662,89.4486486 48.3388273,89.1675676 C47.6773845,89.027027 46.3912456,88.7986486 45.7481762,88.6581081 C43.8373413,88.2891892 42.5695758,87.3054054 42.5695758,85.4783784 C42.5695758,83.5283784 44.2231829,82 47.1813024,82 C49.9005674,82 51.6460416,83.3702703 51.9400162,85.3905405 L50.2680357,85.3905405 C49.9556877,84.1256757 49.0553904,83.4405405 47.1445555,83.4405405 C45.564442,83.4405405 44.2415563,84.1256757 44.2415563,85.4432432 C44.2415563,86.6554054 45.3623345,87.0418919 46.4647393,87.2702703 Z M63.9378546,82.2283784 L63.9378546,83.6337838 L59.6384761,83.6337838 L59.6384761,94.7716216 L57.984869,94.7716216 L57.984869,83.6337838 L53.6487436,83.6337838 L53.6487436,82.2283784 L63.9378546,82.2283784 Z M75.1345207,82.2283784 L76.8911105,82.2283784 L76.8911105,90.2918919 C76.8911105,93.2608108 74.9783794,95 71.4066469,95 C67.8349143,95 65.9221832,93.2608108 65.9221832,90.2918919 L65.9221832,82.2283784 L67.678773,82.2283784 L67.678773,90.2743243 C67.678773,92.2418919 68.9669388,93.5594595 71.4066469,93.5594595 C73.8463549,93.5594595 75.1345207,92.2418919 75.1345207,90.2743243 L75.1345207,82.2283784 Z M80,82.2283784 L85.4726917,82.2283784 C89.9615288,82.2283784 92.2366928,84.722973 92.2366928,88.5 C92.2366928,92.2594595 89.9615288,94.7716216 85.4726917,94.7716216 L80,94.7716216 L80,82.2283784 Z M81.6100006,93.3310811 L85.4776209,93.3310811 C89.2578373,93.3310811 90.7000008,91.1175676 90.7000008,88.5 C90.7000008,85.8824324 89.2578373,83.6689189 85.4776209,83.6689189 L81.6100006,83.6689189 L81.6100006,93.3310811 Z M94.6200027,82.2283784 L96.2736099,82.2283784 L96.2736099,94.7716216 L94.6200027,94.7716216 L94.6200027,82.2283784 Z M105.730004,82 C110.011355,82 112.300004,84.8986486 112.300004,88.5 C112.300004,92.1013514 110.011355,95 105.730004,95 C101.428923,95 99.1600037,92.1013514 99.1600037,88.5 C99.1600037,84.8986486 101.428923,82 105.730004,82 Z M105.745,93.5594595 C109.429504,93.5594595 110.99,91.1175676 110.99,88.5 C110.99,85.8824324 109.429504,83.4405405 105.745,83.4405405 C102.060496,83.4405405 100.5,85.8824324 100.5,88.5 C100.5,91.1175676 102.060496,93.5594595 105.745,93.5594595 Z" id="STUDIO" fill="#000000"></path>
        <path d="M115.6685,82 L115.6685,82.5504202 L114.6695,82.5504202 L114.6695,85 L113.999,85 L113.999,82.5504202 L113,82.5504202 L113,82 L115.6685,82 Z M116,85 L116,82 L116.956825,82 L117.445682,83.210084 L117.554318,83.210084 L118.038997,82 L119,82 L119,85 L118.41922,85 L118.41922,82.7647059 L118.310585,82.7647059 L117.809192,83.9747899 L117.18663,83.9747899 L116.689415,82.7647059 L116.58078,82.7647059 L116.58078,85 L116,85 Z" id="лблю" fill="#000000"></path>
    </g>
</svg>