<?xml version="1.0" encoding="UTF-8"?>
<svg width="190px" height="106px" viewBox="0 0 190 106" version="1.1" xmlns="http://www.w3.org/2000/svg" xmlns:xlink="http://www.w3.org/1999/xlink">
    <!-- Generator: Sketch 50 (54983) - http://www.bohemiancoding.com/sketch -->
    <title>proposal-vtb</title>
    <desc>Created with Sketch.</desc>
    <defs></defs>
    <g id="proposal-vtb" stroke="none" stroke-width="1" fill="none" fill-rule="evenodd">
        <path d="M143.237028,78.3720713 L154.602951,78.3720713 C157.883575,78.7641145 161.143809,77.4950645 163.297881,74.9875589 C164.857048,72.9452968 165.64235,70.4158821 165.514236,67.8487974 C165.730936,64.5307151 164.268561,61.3254508 161.621408,59.3164131 C159.511551,57.9346502 157.002564,57.2943123 154.489291,57.4961711 L143.237028,57.4961711 L143.237028,78.3720713 Z M128.319254,90.9715587 L128.319254,15.8296946 L177.164307,15.8296946 L172.873671,28.429182 L143.237028,28.429182 L143.237028,45.0673314 L155.313321,45.0673314 C165.059599,45.0673314 170.117435,47.3995164 173.612456,50.3858509 C178.674892,54.8729544 181.407189,61.4323835 181.028721,68.1900927 C181.418602,75.4878238 178.09312,82.4874746 172.191716,86.7906904 C167.503273,90.0329964 162.587511,90.9431174 152.585499,90.9431174 L128.319254,90.9715587 Z M85.0719189,90.9715587 L85.0719189,28.4007408 L63.3630067,28.4007408 L63.3630067,15.8296946 L123.630811,15.8296946 L119.340176,28.429182 L100.131766,28.429182 L100.131766,91 L85.0719189,90.9715587 Z M24.9177734,45.9205698 L33.4422154,45.9205698 C35.185634,46.0397855 36.9371126,45.9056678 38.642125,45.5223919 C42.2940213,44.3547174 44.6528118,40.8132352 44.3250863,36.9900076 C44.8146524,33.1720359 42.3727536,29.5913211 38.642125,28.6567123 C36.7805257,28.2241244 34.8680156,28.0518381 32.9591637,28.1447692 L24.9177734,28.1447692 L24.9177734,45.9205698 Z M24.9177734,58.9182352 L24.9177734,78.6280428 L35.3175926,78.6280428 C38.1837123,78.9559646 41.0654157,78.1609742 43.3589829,76.4096229 C45.4990097,74.4249425 46.6446959,71.5893335 46.4846116,68.6735945 C46.5298826,66.3726078 45.8323245,64.1183935 44.4955752,62.245865 C42.2792202,59.4017369 39.5513988,58.8613526 34.8913705,58.8613526 L24.9177734,58.9182352 Z M48.9566998,50.9831178 L48.9566998,51.2390893 C51.4901274,52.2152674 53.857568,53.5775742 55.975157,55.2777512 C60.3164295,58.8839634 62.680482,64.3453648 62.3400737,69.9818934 C62.3400737,80.2491958 56.8844308,87.6723701 47.9337667,89.89079 C44.3659547,90.7637633 40.691181,91.1181729 37.022481,90.9431174 L10,90.9431174 L10,15.8296946 L34.0389263,15.8296946 C37.8570089,15.6899849 41.6771522,16.0436773 45.404849,16.882022 C54.0997798,19.214207 59.8111559,25.2153173 59.8111559,34.6862638 C59.9546702,39.2496619 58.2183695,43.6715845 55.0090536,46.9160146 C53.3225921,48.6299688 51.3139079,49.9928936 49.0987738,50.9262352 L48.9566998,50.9831178 Z" id="Shape" fill="#000000" fill-rule="nonzero"></path>
    </g>
</svg>