<?xml version="1.0" encoding="UTF-8"?>
<svg width="124px" height="106px" viewBox="0 0 124 106" version="1.1" xmlns="http://www.w3.org/2000/svg" xmlns:xlink="http://www.w3.org/1999/xlink">
    <!-- Generator: Sketch 50 (54983) - http://www.bohemiancoding.com/sketch -->
    <title>proposal-sberbank</title>
    <desc>Created with Sketch.</desc>
    <defs></defs>
    <g id="proposal-sberbank" stroke="none" stroke-width="1" fill="none" fill-rule="evenodd">
        <path d="M105,20.5555556 L42.3541667,57 L12,39.4285714 C12.2152778,37.4761905 12.6458333,35.7407407 13.2916667,33.7883598 L42.1388889,50.4920635 L101.770833,16 C102.847222,17.5185185 103.923611,19.037037 105,20.5555556 Z M42.0714286,63.4277457 L107.428571,26 C111.071429,32.8439306 113,40.7572254 113,49.0982659 C113,77.3294798 90.0714286,100 62,100 C33.7142857,100 11,77.1156069 11,49.0982659 C11,48.0289017 11,46.7456647 11.2142857,45.6763006 L42.0714286,63.4277457 Z M97,12.2724551 L41.6927083,43.5 L15,28.4101796 C15.8541667,26.7335329 16.7083333,25.0568862 17.5625,23.5898204 L41.90625,37.2125749 L92.515625,8.5 C94.0104167,9.75748503 95.5052083,10.8053892 97,12.2724551 Z M88,3.96350365 L41.5079872,30 L20,17.9343066 C21.3035144,16.4525547 22.3897764,14.9708029 23.6932907,13.7007299 L41.7252396,23.649635 L81.9169329,1 C84.0894569,1.84671533 86.0447284,2.90510949 88,3.96350365 Z" id="Combined-Shape" fill="#000000" fill-rule="nonzero"></path>
    </g>
</svg>