<?xml version="1.0" encoding="UTF-8"?>
<svg width="242px" height="106px" viewBox="0 0 242 106" version="1.1" xmlns="http://www.w3.org/2000/svg" xmlns:xlink="http://www.w3.org/1999/xlink">
    <!-- Generator: Sketch 50 (54983) - http://www.bohemiancoding.com/sketch -->
    <title>proposal-zeworkroom</title>
    <desc>Created with Sketch.</desc>
    <defs></defs>
    <g id="proposal-zeworkroom" stroke="none" stroke-width="1" fill="none" fill-rule="evenodd">
        <path d="M14,12 L228,12 L228,94 L14,94 L14,12 Z M17,15 L17,91 L118,91 L118,34 L121,34 L121,91 L225,91 L225,15 L17,15 Z" id="Combined-Shape" fill="#000000"></path>
        <polygon id="Rectangle-4" fill="#000000" points="136.279053 35 140.034912 35 147.578369 63.9094238 156.071777 35 160.287598 35 168.515137 63.9094238 176.368652 35 179.891846 35 170.426514 69 166.517822 69 158.411377 39.2211914 149.507568 69 145.985352 69"></polygon>
        <polygon id="Rectangle" fill="#000000" points="44 35 68.293457 35 68.293457 38.0209961 46.2580566 65.9919434 69 65.9919434 69 69 42.5686035 69 42.5686035 65.9919434 64.2304688 38.0209961 44 38.0209961"></polygon>
    </g>
</svg>