<svg width="359" height="41" xmlns="http://www.w3.org/2000/svg"><g fill="#FFF" fill-rule="evenodd"><path fill-rule="nonzero" d="M30 33.408V9.575L15 0 0 9.575v23.833h7.714v-2.57H2.571V10.983L15 3.05l12.429 7.934v19.855h-8.573L7.717 37.95V41l11.896-7.592z"/><path d="M51.84 13.36h-7.96V26h-1.8V11.72h9.76v1.64zm3.86 2.3c3.14 0 4.96 2.32 4.96 5.3s-1.82 5.3-4.96 5.3c-3.16 0-4.96-2.32-4.96-5.3s1.8-5.3 4.96-5.3zm0 9.12c2.22 0 3.26-1.84 3.26-3.82 0-1.98-1.04-3.82-3.26-3.82-2.24 0-3.26 1.84-3.26 3.82 0 1.98 1.02 3.82 3.26 3.82zm12.46-7.64c-2.24 0-3.16 1.84-3.16 3.82 0 1.98.92 3.82 3.16 3.82 2.02 0 3.1-1.58 3.1-3.82 0-2.24-1.08-3.82-3.1-3.82zm-4.84-1.22h1.64V17h.44c.56-.7 1.54-1.34 3.14-1.34 2.78 0 4.42 2.32 4.42 5.3 0 3.04-1.64 5.3-4.42 5.3-1.6 0-2.54-.62-3.08-1.34h-.44V30h-1.7V15.92zm16.64-.26c3.14 0 4.96 2.32 4.96 5.3s-1.82 5.3-4.96 5.3c-3.16 0-4.96-2.32-4.96-5.3s1.8-5.3 4.96-5.3zm0 9.12c2.22 0 3.26-1.84 3.26-3.82 0-1.98-1.04-3.82-3.26-3.82-2.24 0-3.26 1.84-3.26 3.82 0 1.98 1.02 3.82 3.26 3.82zm16.6-.26h1.86v4.34h-1.66V26h-8.72v2.86h-1.66v-4.34h1.34c.64-1.36 1.24-3.34 1.24-5.84v-2.76h7.6v8.6zm-1.7 0V17.4h-4.32v1.28c0 2.54-.48 4.48-1.1 5.84h5.42zm12.58-1.56h1.7c-.38 1.98-1.9 3.3-4.24 3.3-3.14 0-4.9-2.32-4.9-5.3 0-3.04 1.76-5.3 4.9-5.3 2.4 0 3.84 1.32 4.18 3.18h-1.7c-.32-1.02-1.1-1.7-2.48-1.7-2.28 0-3.2 1.78-3.2 3.78 0 2.02.94 3.86 3.2 3.86 1.44 0 2.28-.7 2.54-1.82zm11.2 3.04l-2.24-4.44h-3.02V26h-1.7V15.92h1.7v4.16h3.06l2.1-4.16h1.78l-2.46 4.86 2.6 5.22h-1.82zm8.58-10.34c3.14 0 4.96 2.32 4.96 5.3s-1.82 5.3-4.96 5.3c-3.16 0-4.96-2.32-4.96-5.3s1.8-5.3 4.96-5.3zm0 9.12c2.22 0 3.26-1.84 3.26-3.82 0-1.98-1.04-3.82-3.26-3.82-2.24 0-3.26 1.84-3.26 3.82 0 1.98 1.02 3.82 3.26 3.82zm16.36-4.42v.58h-7.68c.06 2.4 1.14 3.84 3.22 3.84 1.42 0 2.26-.6 2.56-1.56h1.72c-.32 1.72-1.78 3.04-4.28 3.04-3.14 0-4.9-2.3-4.9-5.4 0-3.1 1.8-5.2 4.86-5.2 3 0 4.44 2.22 4.5 4.7zm-4.54-3.22c-1.82 0-2.82 1.1-3.04 2.38h5.82c-.1-1.28-1.08-2.38-2.78-2.38zm17.34-1.12c3.04 0 4.78 2.26 4.78 5.12 0 2.86-1.86 5.12-4.98 5.12-3.2 0-5.02-2.18-5.02-6.1 0-3.4.48-6.9 3.98-7.48l2.68-.44c.74-.1.92-.2.98-.78h1.58c-.06 1.14-.42 1.96-1.98 2.24l-3.1.52c-1.8.32-2.4 1.58-2.62 3.26h.44c.86-1.12 1.84-1.46 3.26-1.46zm-.24 8.76c2.24 0 3.28-1.8 3.28-3.66 0-1.88-1.04-3.64-3.28-3.64-2.24 0-3.28 1.76-3.28 3.64 0 1.86 1.04 3.66 3.28 3.66zm16.5-9.12c3.06 0 4.88 2.34 4.88 5.3s-1.82 5.3-4.88 5.3c-2.84 0-4.62-2.04-4.84-4.7h-2.3V26h-1.68V15.92h1.68v4.16h2.36c.32-2.56 2.06-4.42 4.78-4.42zm0 9.12c2.16 0 3.18-1.84 3.18-3.82 0-1.98-1.02-3.82-3.18-3.82-2.18 0-3.18 1.84-3.18 3.82 0 1.98 1 3.82 3.18 3.82zm12.38-7.64c-2.24 0-3.16 1.84-3.16 3.82 0 1.98.92 3.82 3.16 3.82 2.02 0 3.1-1.58 3.1-3.82 0-2.24-1.08-3.82-3.1-3.82zm-4.84-1.22h1.64V17h.44c.56-.7 1.54-1.34 3.14-1.34 2.78 0 4.42 2.32 4.42 5.3 0 3.04-1.64 5.3-4.42 5.3-1.6 0-2.54-.62-3.08-1.34h-.44V30h-1.7V15.92zm16.64-.26c3.14 0 4.96 2.32 4.96 5.3s-1.82 5.3-4.96 5.3c-3.16 0-4.96-2.32-4.96-5.3s1.8-5.3 4.96-5.3zm0 9.12c2.22 0 3.26-1.84 3.26-3.82 0-1.98-1.04-3.82-3.26-3.82-2.24 0-3.26 1.84-3.26 3.82 0 1.98 1.02 3.82 3.26 3.82zM218.98 26h-1.7v-4.44h-5.58V26H210V15.92h1.7v4.16h5.58v-4.16h1.7V26zM231 20.36v.58h-7.68c.06 2.4 1.14 3.84 3.22 3.84 1.42 0 2.26-.6 2.56-1.56h1.72c-.32 1.72-1.78 3.04-4.28 3.04-3.14 0-4.9-2.3-4.9-5.4 0-3.1 1.8-5.2 4.86-5.2 3 0 4.44 2.22 4.5 4.7zm-4.54-3.22c-1.82 0-2.82 1.1-3.04 2.38h5.82c-.1-1.28-1.08-2.38-2.78-2.38zm16.16 7.38h1.86v4.34h-1.66V26h-8.72v2.86h-1.66v-4.34h1.34c.64-1.36 1.24-3.34 1.24-5.84v-2.76h7.6v8.6zm-1.7 0V17.4h-4.32v1.28c0 2.54-.48 4.48-1.1 5.84h5.42zm12.86-4.08v.44c.94.24 1.64 1.06 1.64 2.36 0 1.84-1.26 2.76-3.56 2.76h-5.18V15.92h5c2.02 0 3.18.94 3.18 2.54 0 .98-.52 1.68-1.08 1.98zm-5.42 4.12h3.4c1.46 0 1.96-.64 1.96-1.5s-.5-1.52-1.96-1.52h-3.4v3.02zm0-7.2v2.74h3.16c1.22 0 1.64-.64 1.64-1.36 0-.78-.42-1.38-1.64-1.38h-3.16zm12.1 8.64h-2.4V15.92h1.66v7.8h.44l4.42-7.8h2.48V26h-1.66v-7.8h-.44l-4.5 7.8zm12.74-4.42L271.26 26h-1.78l2.28-5.18-2.14-4.9h1.76l1.82 4.18h2.58v-4.18h1.64v4.18H280l1.82-4.18h1.76l-2.14 4.9 2.3 5.18h-1.8L280 21.58h-2.58V26h-1.64v-4.42h-2.58zM288.54 26h-2.4V15.92h1.66v7.8h.44l4.42-7.8h2.48V26h-1.66v-7.8h-.44l-4.5 7.8zm9.88 0V15.92h2.7l2.48 4.6h.44l2.48-4.6h2.66V26h-1.66v-8.1h-.44l-2.34 4.32h-1.88l-2.34-4.32h-.44V26h-1.66zm18.38-10.34c3.14 0 4.96 2.32 4.96 5.3s-1.82 5.3-4.96 5.3c-3.16 0-4.96-2.32-4.96-5.3s1.8-5.3 4.96-5.3zm0 9.12c2.22 0 3.26-1.84 3.26-3.82 0-1.98-1.04-3.82-3.26-3.82-2.24 0-3.26 1.84-3.26 3.82 0 1.98 1.02 3.82 3.26 3.82zm14.44-1.82h1.7c-.38 1.98-1.9 3.3-4.24 3.3-3.14 0-4.9-2.32-4.9-5.3 0-3.04 1.76-5.3 4.9-5.3 2.4 0 3.84 1.32 4.18 3.18h-1.7c-.32-1.02-1.1-1.7-2.48-1.7-2.28 0-3.2 1.78-3.2 3.78 0 2.02.94 3.86 3.2 3.86 1.44 0 2.28-.7 2.54-1.82zm3.2-5.56v-1.48h8.68v1.48h-3.48V26h-1.7v-8.6h-3.5zm13.32 8.6h-2.4V15.92h1.66v7.8h.44l4.42-7.8h2.48V26h-1.66v-7.8h-.44l-4.5 7.8z"/></g></svg>